<svg xmlns="http://www.w3.org/2000/svg" version="1.1" xmlns:xlink="http://www.w3.org/1999/xlink" xmlns:svgjs="http://svgjs.dev/svgjs" width="100%" height="100%" viewBox="0 0 1000 600"><rect width="1000" height="600" x="0" y="0" fill="#ffffff"/><g><circle r="166.66666666666666" cx="464.0191446940104" cy="486.24133664285023" fill="#8537fa" transform="matrix(0.42037652335183673,0,0,0.42037652335183673,0,95.59554670140112)"/><path d="M412.34877434626077 561.2413139466134L412.34877434626077 411.24131671869867L515.6895071962554 411.24131671869867L515.6895071962554 444.396342347396L459.2199886597069 444.396342347396L459.2199886597069 474.7051831276025L511.54134417239095 474.7051831276025L511.54134417239095 502.167839059318L459.2199886597069 502.167839059318L459.2199886597069 561.2413139466134L412.34877434626077 561.2413139466134Z " fill="#000000" transform="matrix(0.42037652335183673,0,0,0.42037652335183673,0,95.59554670140112)"/><path d="M714.019142534826 559.5054821927164L714.019142534826 411.2413243160139L816.1639892916256 411.2413243160139L816.1639892916256 444.012671283109L760.3479508499522 444.012671283109L760.3479508499522 473.9707702000608L812.0638298993954 473.9707702000608L812.0638298993954 501.11562106686927L760.3479508499522 501.11562106686927L760.3479508499522 559.5054821927164L714.019142534826 559.5054821927164ZM886.6149032281935 561.2413160959964Q868.5083599267391 561.2413160959964 854.4121915052763 554.1184114583994Q840.2860949130672 546.9955068208023 832.4149860068152 534.3957469366499Q824.5738052713093 521.7959870524974 824.5738052713093 505.4252776543229L824.5738052713093 505.4252776543229Q824.5738052713093 489.05456825614846 832.5346986898 476.42488020124966Q840.4955921082907 463.8251203170971 854.6216887004997 456.9416410454698Q868.7477852927088 450.02823360309634 886.8244004234169 450.02823360309634L886.8244004234169 450.02823360309634Q905.1404409200948 450.02823360309634 919.2665375123038 457.0314255577084Q933.3926341045128 464.03461751232055 941.1440303277801 476.5445928842345Q948.8954265510473 489.05456825614846 948.8954265510473 505.4252776543229L948.8954265510473 505.4252776543229Q948.8954265510473 522.0054842477207 941.0243176447952 534.6052441318734Q933.1532087385432 547.2349321867721 919.0570403170804 554.2381241413841Q904.9309437248713 561.2413160959964 886.6149032281935 561.2413160959964L886.6149032281935 561.2413160959964ZM887.0638257893866 528.9188916900943Q895.8926361595172 528.9188916900943 901.6089167720426 522.334694125929Q907.2952692138216 515.7504965617638 907.2952692138216 505.4252776543229L907.2952692138216 505.4252776543229Q907.2952692138216 495.07013057613574 901.6089167720426 488.5158611827167Q895.8926361595172 481.93166361855145 887.0638257893866 481.93166361855145L887.0638257893866 481.93166361855145Q878.2050872485097 481.93166361855145 872.5187348067307 488.5158611827167Q866.8024541942054 495.07013057613574 866.8024541942054 505.4252776543229L866.8024541942054 505.4252776543229Q866.8024541942054 515.7504965617638 872.5187348067307 522.334694125929Q878.2050872485097 528.9188916900943 887.0638257893866 528.9188916900943L887.0638257893866 528.9188916900943ZM965.0566387539984 559.5054821927164L965.0566387539984 453.0509788484631L1010.5175301174846 453.0509788484631L1010.5175301174846 475.0481843469242Q1015.4856064613548 462.32871177978683 1023.9852069532772 456.1934367768147Q1032.5147356159457 450.02823360309634 1043.9173686702502 450.02823360309634L1043.9173686702502 450.02823360309634L1050.172356356207 485.1639060591417Q1029.7014875658024 485.1639060591417 1020.1244729270167 489.59327532958014Q1010.5175301174846 493.9927164292723 1010.5175301174846 503.47994655581954L1010.5175301174846 503.47994655581954L1010.5175301174846 559.5054821927164L965.0566387539984 559.5054821927164ZM1132.714251274242 559.5054821927164L1132.714251274242 518.3542474166836L1090.036679790153 411.2413243160139L1135.0785767631924 411.2413243160139L1155.968439944044 477.83150422632133L1176.4393087344483 411.2413243160139L1223.845531196438 411.2413243160139L1179.0430595893683 518.3542474166836L1179.0430595893683 559.5054821927164L1132.714251274242 559.5054821927164ZM1276.6388243927447 561.2413160959964Q1258.5322810912903 561.2413160959964 1244.4361126698277 554.1184114583994Q1230.3100160776185 546.9955068208023 1222.4389071713663 534.3957469366499Q1214.5977264358605 521.7959870524974 1214.5977264358605 505.4252776543229L1214.5977264358605 505.4252776543229Q1214.5977264358605 489.05456825614846 1222.5586198543513 476.42488020124966Q1230.5195132728418 463.8251203170971 1244.645609865051 456.9416410454698Q1258.7717064572598 450.02823360309634 1276.8483215879683 450.02823360309634L1276.8483215879683 450.02823360309634Q1295.1643620846462 450.02823360309634 1309.290458676855 457.0314255577084Q1323.416555269064 464.03461751232055 1331.1679514923314 476.5445928842345Q1338.9193477155984 489.05456825614846 1338.9193477155984 505.4252776543229L1338.9193477155984 505.4252776543229Q1338.9193477155984 522.0054842477207 1331.0482388093465 534.6052441318734Q1323.1771299030945 547.2349321867721 1309.0809614816317 554.2381241413841Q1294.9548648894224 561.2413160959964 1276.6388243927447 561.2413160959964L1276.6388243927447 561.2413160959964ZM1277.0877469539378 528.9188916900943Q1285.9165573240684 528.9188916900943 1291.6328379365937 522.334694125929Q1297.3191903783727 515.7504965617638 1297.3191903783727 505.4252776543229L1297.3191903783727 505.4252776543229Q1297.3191903783727 495.07013057613574 1291.6328379365937 488.5158611827167Q1285.9165573240684 481.93166361855145 1277.0877469539378 481.93166361855145L1277.0877469539378 481.93166361855145Q1268.229008413061 481.93166361855145 1262.5426559712819 488.5158611827167Q1256.8263753587566 495.07013057613574 1256.8263753587566 505.4252776543229L1256.8263753587566 505.4252776543229Q1256.8263753587566 515.7504965617638 1262.5426559712819 522.334694125929Q1268.229008413061 528.9188916900943 1277.0877469539378 528.9188916900943L1277.0877469539378 528.9188916900943ZM1412.3930068975333 561.2413160959964Q1395.3638777429423 561.2413160959964 1382.1356262731194 555.1958256052628Q1368.8774466325506 549.1503351145293 1361.54504479973 538.1666964506718Q1354.2126429669097 527.1830577868143 1354.2126429669097 513.17667387759L1354.2126429669097 513.17667387759L1354.2126429669097 451.5545703111528L1398.5961201835323 451.5545703111528L1398.5961201835323 512.5182541211736Q1398.5961201835323 519.6411587587705 1402.606495063524 523.6216054680158Q1406.5869417727693 527.6020521772612 1412.6025040927568 527.6020521772612L1412.6025040927568 527.6020521772612Q1418.4384973882668 527.6020521772612 1422.2094469022888 523.6216054680158Q1425.9803964163104 519.6411587587705 1425.9803964163104 512.5182541211736L1425.9803964163104 512.5182541211736L1425.9803964163104 451.5545703111528L1469.4959566812936 451.5545703111528L1469.4959566812936 513.17667387759Q1469.4959566812936 527.3925549820378 1462.283267531458 538.2864091336567Q1455.0705783816225 549.1503351145293 1442.1416086192617 555.1958256052628Q1429.2126388569009 561.2413160959964 1412.3930068975333 561.2413160959964L1412.3930068975333 561.2413160959964ZM1533.931308297874 559.5054821927164L1533.931308297874 411.2413243160139L1577.2373713676336 411.2413243160139L1636.285652249897 491.20939654987524L1636.285652249897 411.2413243160139L1674.8630643417564 411.2413243160139L1674.8630643417564 559.5054821927164L1631.7664984672201 559.5054821927164L1572.2992231945098 482.3506580089984L1572.2992231945098 559.5054821927164L1533.931308297874 559.5054821927164ZM1754.3822140144246 561.2413160959964Q1736.4851679081937 561.2413160959964 1722.5984966819544 553.9986987754146Q1708.6818972849685 546.786009625579 1700.9305010617013 534.1862497414265Q1693.1791048384341 521.5864898572738 1693.1791048384341 505.6347748495463L1693.1791048384341 505.6347748495463Q1693.1791048384341 489.2640654513719 1701.1399982569249 476.5445928842345Q1709.1308198461618 463.8251203170971 1722.6882811941928 456.9416410454698Q1736.27567071297 450.02823360309634 1752.855877306368 450.02823360309634L1752.855877306368 450.02823360309634Q1768.8075923140957 450.02823360309634 1780.1204408561614 457.0314255577084Q1791.433289398227 464.03461751232055 1797.0298573277676 476.0058858108028Q1802.626425257308 487.97715410928504 1802.626425257308 502.821526799403L1802.626425257308 502.821526799403Q1802.626425257308 506.71218899640974 1802.207430866861 508.44802289968965L1802.207430866861 508.44802289968965L1737.562582055057 516.8279107086272Q1740.136404739231 524.369809736671 1745.9723980347405 527.721764860246Q1751.7784631595048 531.0737199838211 1761.265693286052 531.0737199838211L1761.265693286052 531.0737199838211Q1775.9304969516927 531.0737199838211 1792.9296979355374 523.5318209557772L1792.9296979355374 523.5318209557772L1798.3167686698541 552.3825775551195Q1778.294822440643 561.2413160959964 1754.3822140144246 561.2413160959964L1754.3822140144246 561.2413160959964ZM1735.826748151777 497.0154616746391L1769.2265867045423 489.68305984181876Q1765.7848470687288 476.1255984937876 1752.855877306368 476.1255984937876L1752.855877306368 476.1255984937876Q1745.1044810831006 476.1255984937876 1740.5853273004238 481.93166361855145Q1736.0661735177466 487.73772874331536 1735.826748151777 497.0154616746391L1735.826748151777 497.0154616746391ZM1835.6072694196266 559.5054821927164L1811.9041581886315 451.5545703111528L1855.8686410148077 451.5545703111528L1868.139191020752 521.5864898572738L1883.013491881616 451.5545703111528L1920.0645672654189 451.5545703111528L1935.1483653215062 523.2923955898076L1947.4488434981965 451.5545703111528L1982.7940131494654 451.5545703111528L1960.3778132605573 559.5054821927164L1908.871431406338 559.5054821927164L1896.810378595617 502.4025324089561L1885.3778173705666 559.5054821927164L1835.6072694196266 559.5054821927164ZM2035.138383784579 561.2413160959964Q2012.5126867004476 561.2413160959964 1995.4835575458567 554.5374058488462L1995.4835575458567 554.5374058488462L2000.4516338897267 528.9188916900943Q2015.9544263362611 534.5154596196347 2030.6192300019022 534.5154596196347L2030.6192300019022 534.5154596196347Q2041.393371470536 534.5154596196347 2041.393371470536 528.4699691289012L2041.393371470536 528.4699691289012Q2041.393371470536 525.4472238835344 2038.2808417129306 523.5318209557772Q2035.138383784579 521.5864898572738 2026.519070609672 520.0601531492174L2026.519070609672 520.0601531492174Q2008.6519526741874 516.6184135134038 2000.7808437679353 508.44802289968965Q1992.909734861683 500.2477041152293 1992.909734861683 485.1639060591417L1992.909734861683 485.1639060591417Q1993.777651813323 468.13477690455073 2006.4971243804605 459.09646933919663Q2019.1866687768513 450.02823360309634 2041.1838742753127 450.02823360309634L2041.1838742753127 450.02823360309634Q2052.3770101343935 450.02823360309634 2060.457616235869 451.434857628168Q2068.5382223373445 452.84148165323967 2075.2122044137486 456.07372409382987L2075.2122044137486 456.07372409382987L2070.693050631072 481.7221664233281Q2064.4380629451143 479.3578409343778 2057.015876600056 478.04100142154476Q2049.5936902549965 476.7540900794579 2044.6256139111263 476.7540900794579L2044.6256139111263 476.7540900794579Q2037.293212078306 476.7540900794579 2034.5098921989086 478.2804267875144Q2031.6966441487655 479.7768353248247 2031.6966441487655 482.3506580089984L2031.6966441487655 482.3506580089984Q2031.6966441487655 487.10923715764505 2042.4707856173993 489.05456825614846L2042.4707856173993 489.05456825614846Q2062.073737456164 492.4963078919621 2071.7704647779346 501.11562106686927Q2081.4671920997052 509.7349342417765 2081.4671920997052 524.6092351026407L2081.4671920997052 524.6092351026407Q2081.4671920997052 541.6084360864854 2069.525851971969 551.4248760912408Q2057.5545836734873 561.2413160959964 2035.138383784579 561.2413160959964L2035.138383784579 561.2413160959964Z " fill="#000000" transform="matrix(0.42037652335183673,0,0,0.42037652335183673,0,95.59554670140112)"/></g></svg>